#!OML:ASF X:\für Bonn\!DataBase\2005_08_11_Bastian_Final\c3d\Bastian.ASF
:FULLY-SPECIFIED
:DEGREES
1959
root 0.181122 17.459 -8.5466 163.961 -52.7298 -176.397
lowerback 16.0499 -3.98878 6.98392
upperback 6.94102 -5.06587 5.31539
thorax -1.59232 -2.89036 2.5675
lowerneck -0.287822 -14.0786 -3.60341
upperneck -20.7129 -18.364 14.0452
head -4.48014 -10.1275 5.3938
rclavicle -6.52014e-014 -6.36111e-015
rhumerus -207.911 -190.252 107.414
rradius 68.9968
rwrist -140.654
rhand -14.1048 9.63945
rfingers 7.12502
rthumb 12.0281 -19.9949
lclavicle -6.52014e-014 -6.36111e-015
lhumerus 11.0177 -47.1364 81.5303
lradius 63.2041
lwrist 209.096
lhand -22.5198 13.542
lfingers 7.12502
lthumb 3.90683 43.486
rfemur -4.38065 -9.55831 21.7726
rtibia 37.518
rfoot -14.5689 -7.05345
rtoes 3.45506
lfemur 1.0304 -1.4062 -5.12782
ltibia 45.4676
lfoot -2.70959 -9.05163
ltoes -32.2283
1960
root 0.188467 17.4594 -8.52208 164.209 -52.1704 -176.631
lowerback 16.1083 -3.87541 6.99665
upperback 6.97333 -4.91198 5.21728
thorax -1.59789 -2.81119 2.43206
lowerneck -0.505734 -14.0576 -3.2451
upperneck -20.7644 -18.3535 13.9289
head -4.5108 -10.1417 5.30224
rclavicle -9.54166e-015 -6.04305e-014
rhumerus -208.509 -188.762 106.751
rradius 65.9299
rwrist -140.875
rhand -13.759 9.44907
rfingers 7.12502
rthumb 12.3615 -20.1655
lclavicle -9.54166e-015 -6.04305e-014
lhumerus 7.26582 -45.8511 84.1794
lradius 60.9333
lwrist 209.124
lhand -21.5583 13.7082
lfingers 7.12502
lthumb 4.83529 43.633
rfemur -4.62281 -9.15621 21.7376
rtibia 37.6268
rfoot -14.4806 -6.84247
rtoes 3.56723
lfemur 1.24264 -1.59097 -5.59651
ltibia 45.5226
lfoot -2.84911 -9.34181
ltoes -32.0543
1961
root 0.194129 17.4605 -8.4982 164.417 -51.5921 -176.804
lowerback 16.1371 -3.76529 7.02871
upperback 7.00146 -4.76233 5.12569
thorax -1.59236 -2.73373 2.29126
lowerneck -0.717217 -14.0226 -2.86656
upperneck -20.8075 -18.3298 13.7714
head -4.5475 -10.1477 5.19699
rclavicle 8.22969e-014 3.18055e-014
rhumerus -209.108 -187.186 106.224
rradius 62.9283
rwrist -140.991
rhand -13.3903 9.26345
rfingers 7.12502
rthumb 12.7169 -20.3293
lclavicle 8.22969e-014 3.18055e-014
lhumerus 3.79059 -44.2712 86.4909
lradius 58.4762
lwrist 209.099
lhand -20.8356 14.3023
lfingers 7.12502
lthumb 5.53306 44.2101
rfemur -4.84524 -8.71864 21.7439
rtibia 37.692
rfoot -14.366 -6.65761
rtoes 3.65537
lfemur 1.49403 -1.8207 -6.04501
ltibia 45.5226
lfoot -3.01173 -9.60513
ltoes -32.044
1962
root 0.19789 17.463 -8.47428 164.619 -50.9876 -176.936
lowerback 16.1169 -3.65823 7.12653
upperback 7.01566 -4.60738 5.00384
thorax -1.58204 -2.64989 2.07803
lowerneck -0.900662 -13.9754 -2.55061
upperneck -20.8213 -18.2803 13.7111
head -4.56438 -10.1431 5.12704
rclavicle 9.70069e-014 -1.27222e-013
rhumerus -209.724 -185.455 105.803
rradius 60.0198
rwrist -140.937
rhand -13.1877 9.12746
rfingers 7.12502
rthumb 12.9122 -20.4531
lclavicle 9.70069e-014 -1.27222e-013
lhumerus 0.588348 -42.3675 88.4548
lradius 56.0547
lwrist 208.719
lhand -20.4852 14.7305
lfingers 7.12502
lthumb 5.87138 44.6292
rfemur -5.08563 -8.3195 21.7725
rtibia 37.7223
rfoot -14.2017 -6.43363
rtoes 3.73555
lfemur 1.7549 -2.05913 -6.47102
ltibia 45.4793
lfoot -3.20616 -9.87268
ltoes -31.9985
1963
root 0.199911 17.4676 -8.45171 164.819 -50.3844 -177.097
lowerback 16.1135 -3.559 7.17122
upperback 7.01224 -4.46564 4.88725
thorax -1.59495 -2.57372 1.90438
lowerneck -1.0579 -13.9266 -2.26004
upperneck -20.7986 -18.2319 13.6143
head -4.5754 -10.1327 5.04954
rclavicle -2.54444e-014 6.67916e-014
rhumerus -210.351 -183.693 105.547
rradius 57.1831
rwrist -140.863
rhand -13.1472 8.99933
rfingers 7.12502
rthumb 12.9513 -20.5787
lclavicle -2.54444e-014 6.67916e-014
lhumerus -2.49196 -39.8767 90.1904
lradius 53.9787
lwrist 207.608
lhand -20.4717 14.2955
lfingers 7.12502
lthumb 5.8844 44.1937
rfemur -5.2643 -7.87919 21.7756
rtibia 37.7138
rfoot -14.0524 -6.22553
rtoes 3.77296
lfemur 2.08174 -2.32919 -6.93079
ltibia 45.3956
lfoot -3.44651 -10.166
ltoes -32.0559
1964
root 0.201321 17.4716 -8.42682 164.934 -49.7755 -177.135
lowerback 16.0883 -3.47795 7.26968
upperback 7.01223 -4.34665 4.81306
thorax -1.59138 -2.51032 1.74824
lowerneck -1.22393 -13.8806 -2.0659
upperneck -20.7536 -18.1856 13.5625
head -4.56311 -10.1195 4.994
rclavicle -4.77083e-014 -6.99722e-014
rhumerus -210.962 -181.874 105.501
rradius 54.4312
rwrist -140.829
rhand -13.3931 8.77809
rfingers 7.12502
rthumb 12.7142 -20.8149
lclavicle -4.77083e-014 -6.99722e-014
lhumerus -5.37044 -37.0495 91.5442
lradius 52.1305
lwrist 206.266
lhand -20.5369 13.6466
lfingers 7.12502
lthumb 5.82146 43.5466
rfemur -5.44915 -7.49172 21.8537
rtibia 37.6762
rfoot -13.8824 -5.96839
rtoes 3.83398
lfemur 2.41637 -2.62079 -7.3107
ltibia 45.2854
lfoot -3.74812 -10.448
ltoes -32.2231
1965
root 0.200782 17.4767 -8.40291 164.999 -49.1459 -177.101
lowerback 15.9768 -3.4078 7.34487
upperback 7.04323 -4.26305 4.78075
thorax -1.5043 -2.46626 1.6476
lowerneck -1.34544 -13.7965 -1.88445
upperneck -20.746 -18.0928 13.4752
head -4.57541 -10.0828 4.93745
rclavicle 3.81667e-014 -9.22361e-014
rhumerus -211.524 -180.046 105.641
rradius 51.7521
rwrist -140.997
rhand -13.8731 8.58815
rfingers 7.12502
rthumb 12.2514 -21.033
lclavicle 3.81667e-014 -9.22361e-014
lhumerus -7.91045 -33.8855 92.5138
lradius 50.2916
lwrist 204.834
lhand -20.6167 13.0241
lfingers 7.12502
lthumb 5.74443 42.9262
rfemur -5.616 -7.0672 21.9867
rtibia 37.6018
rfoot -13.6753 -5.75182
rtoes 3.80033
lfemur 2.79663 -2.90556 -7.64422
ltibia 45.1404
lfoot -4.08188 -10.771
ltoes -32.541
1966
root 0.200313 17.4821 -8.37847 165.067 -48.5069 -177.039
lowerback 15.8266 -3.33237 7.41163
upperback 7.06345 -4.17528 4.75696
thorax -1.40691 -2.41943 1.55786
lowerneck -1.39169 -13.7217 -1.7166
upperneck -20.7681 -18.0049 13.4317
head -4.60243 -10.0521 4.90334
rclavicle -2.98177e-014 1.09729e-013
rhumerus -212.142 -178.086 105.993
rradius 49.1694
rwrist -141.453
rhand -14.4914 8.60987
rfingers 7.12502
rthumb 11.6552 -21.046
lclavicle -2.98177e-014 1.09729e-013
lhumerus -10.0892 -30.4905 93.1312
lradius 48.2978
lwrist 203.248
lhand -20.6606 12.6736
lfingers 7.12502
lthumb 5.70208 42.5769
rfemur -5.79231 -6.68999 22.139
rtibia 37.503
rfoot -13.4707 -5.51471
rtoes 3.74928
lfemur 3.17128 -3.17561 -7.94798
ltibia 44.9717
lfoot -4.38598 -11.1633
ltoes -32.62
